<svg width="89" height="19" viewBox="0 0 89 19" fill="none" xmlns="http://www.w3.org/2000/svg">
<path d="M23.9062 1.19531L19.4648 18H15.2695L12.4805 7.21875C12.332 6.65625 12.2422 6.02734 12.2109 5.33203H12.1641C12.0938 6.09766 11.9922 6.72656 11.8594 7.21875L9 18H4.62891L0.210938 1.19531H4.34766L6.71484 12.3867C6.81641 12.8633 6.89062 13.5039 6.9375 14.3086H7.00781C7.03906 13.707 7.15234 13.0508 7.34766 12.3398L10.3945 1.19531H14.4492L17.2031 12.4805C17.3047 12.8945 17.3945 13.4961 17.4727 14.2852H17.5195C17.5508 13.668 17.6328 13.043 17.7656 12.4102L20.0859 1.19531H23.9062ZM29.8242 18H26.0391V1.19531H29.8242V18ZM32.8828 17.3555V13.6055C33.5625 14.1758 34.3008 14.6055 35.0977 14.8945C35.8945 15.1758 36.6992 15.3164 37.5117 15.3164C37.9883 15.3164 38.4023 15.2734 38.7539 15.1875C39.1133 15.1016 39.4102 14.9844 39.6445 14.8359C39.8867 14.6797 40.0664 14.5 40.1836 14.2969C40.3008 14.0859 40.3594 13.8594 40.3594 13.6172C40.3594 13.2891 40.2656 12.9961 40.0781 12.7383C39.8906 12.4805 39.6328 12.2422 39.3047 12.0234C38.9844 11.8047 38.6016 11.5938 38.1562 11.3906C37.7109 11.1875 37.2305 10.9805 36.7148 10.7695C35.4023 10.2227 34.4219 9.55469 33.7734 8.76562C33.1328 7.97656 32.8125 7.02344 32.8125 5.90625C32.8125 5.03125 32.9883 4.28125 33.3398 3.65625C33.6914 3.02344 34.168 2.50391 34.7695 2.09766C35.3789 1.69141 36.082 1.39453 36.8789 1.20703C37.6758 1.01172 38.5195 0.914062 39.4102 0.914062C40.2852 0.914062 41.0586 0.96875 41.7305 1.07812C42.4102 1.17969 43.0352 1.33984 43.6055 1.55859V5.0625C43.3242 4.86719 43.0156 4.69531 42.6797 4.54688C42.3516 4.39844 42.0117 4.27734 41.6602 4.18359C41.3086 4.08203 40.957 4.00781 40.6055 3.96094C40.2617 3.91406 39.9336 3.89062 39.6211 3.89062C39.1914 3.89062 38.8008 3.93359 38.4492 4.01953C38.0977 4.09766 37.8008 4.21094 37.5586 4.35938C37.3164 4.50781 37.1289 4.6875 36.9961 4.89844C36.8633 5.10156 36.7969 5.33203 36.7969 5.58984C36.7969 5.87109 36.8711 6.125 37.0195 6.35156C37.168 6.57031 37.3789 6.78125 37.6523 6.98438C37.9258 7.17969 38.2578 7.375 38.6484 7.57031C39.0391 7.75781 39.4805 7.95312 39.9727 8.15625C40.6445 8.4375 41.2461 8.73828 41.7773 9.05859C42.3164 9.37109 42.7773 9.72656 43.1602 10.125C43.543 10.5234 43.8359 10.9805 44.0391 11.4961C44.2422 12.0039 44.3438 12.5977 44.3438 13.2773C44.3438 14.2148 44.1641 15.0039 43.8047 15.6445C43.4531 16.2773 42.9727 16.793 42.3633 17.1914C41.7539 17.582 41.043 17.8633 40.2305 18.0352C39.4258 18.207 38.5742 18.293 37.6758 18.293C36.7539 18.293 35.875 18.2148 35.0391 18.0586C34.2109 17.9023 33.4922 17.668 32.8828 17.3555ZM61.6523 18H57.8555V11.1562H50.8945V18H47.1094V1.19531H50.8945V7.89844H57.8555V1.19531H61.6523V18ZM75.5859 18H65.5078V1.19531H75.1992V4.27734H69.293V8.01562H74.7891V11.0859H69.293V14.9297H75.5859V18ZM77.5078 17.3555V13.6055C78.1875 14.1758 78.9258 14.6055 79.7227 14.8945C80.5195 15.1758 81.3242 15.3164 82.1367 15.3164C82.6133 15.3164 83.0273 15.2734 83.3789 15.1875C83.7383 15.1016 84.0352 14.9844 84.2695 14.8359C84.5117 14.6797 84.6914 14.5 84.8086 14.2969C84.9258 14.0859 84.9844 13.8594 84.9844 13.6172C84.9844 13.2891 84.8906 12.9961 84.7031 12.7383C84.5156 12.4805 84.2578 12.2422 83.9297 12.0234C83.6094 11.8047 83.2266 11.5938 82.7812 11.3906C82.3359 11.1875 81.8555 10.9805 81.3398 10.7695C80.0273 10.2227 79.0469 9.55469 78.3984 8.76562C77.7578 7.97656 77.4375 7.02344 77.4375 5.90625C77.4375 5.03125 77.6133 4.28125 77.9648 3.65625C78.3164 3.02344 78.793 2.50391 79.3945 2.09766C80.0039 1.69141 80.707 1.39453 81.5039 1.20703C82.3008 1.01172 83.1445 0.914062 84.0352 0.914062C84.9102 0.914062 85.6836 0.96875 86.3555 1.07812C87.0352 1.17969 87.6602 1.33984 88.2305 1.55859V5.0625C87.9492 4.86719 87.6406 4.69531 87.3047 4.54688C86.9766 4.39844 86.6367 4.27734 86.2852 4.18359C85.9336 4.08203 85.582 4.00781 85.2305 3.96094C84.8867 3.91406 84.5586 3.89062 84.2461 3.89062C83.8164 3.89062 83.4258 3.93359 83.0742 4.01953C82.7227 4.09766 82.4258 4.21094 82.1836 4.35938C81.9414 4.50781 81.7539 4.6875 81.6211 4.89844C81.4883 5.10156 81.4219 5.33203 81.4219 5.58984C81.4219 5.87109 81.4961 6.125 81.6445 6.35156C81.793 6.57031 82.0039 6.78125 82.2773 6.98438C82.5508 7.17969 82.8828 7.375 83.2734 7.57031C83.6641 7.75781 84.1055 7.95312 84.5977 8.15625C85.2695 8.4375 85.8711 8.73828 86.4023 9.05859C86.9414 9.37109 87.4023 9.72656 87.7852 10.125C88.168 10.5234 88.4609 10.9805 88.6641 11.4961C88.8672 12.0039 88.9688 12.5977 88.9688 13.2773C88.9688 14.2148 88.7891 15.0039 88.4297 15.6445C88.0781 16.2773 87.5977 16.793 86.9883 17.1914C86.3789 17.582 85.668 17.8633 84.8555 18.0352C84.0508 18.207 83.1992 18.293 82.3008 18.293C81.3789 18.293 80.5 18.2148 79.6641 18.0586C78.8359 17.9023 78.1172 17.668 77.5078 17.3555Z" fill="#1F2937"/>
</svg>
