<svg width="18" height="16" viewBox="0 0 18 16" fill="none" xmlns="http://www.w3.org/2000/svg">
<path d="M15.875 4.25L15.3542 13.11C15.3261 13.5875 15.1166 14.0363 14.7685 14.3644C14.4204 14.6925 13.96 14.8752 13.4817 14.875H4.51833C4.03997 14.8752 3.57962 14.6925 3.23152 14.3644C2.88342 14.0363 2.6739 13.5875 2.64583 13.11L2.125 4.25M7.125 7.6875L9 9.5625M9 9.5625L10.875 11.4375M9 9.5625L10.875 7.6875M9 9.5625L7.125 11.4375M1.8125 4.25H16.1875C16.705 4.25 17.125 3.83 17.125 3.3125V2.0625C17.125 1.545 16.705 1.125 16.1875 1.125H1.8125C1.295 1.125 0.875 1.545 0.875 2.0625V3.3125C0.875 3.83 1.295 4.25 1.8125 4.25Z" stroke="white" stroke-width="1.5" stroke-linecap="round" stroke-linejoin="round"/>
</svg>
